<svg width="51" height="83" viewBox="0 0 51 83" fill="none" xmlns="http://www.w3.org/2000/svg">
<path fill-rule="evenodd" clip-rule="evenodd" d="M4.27895 19.8625C3.18363 13.6515 2.62766 7.35919 2.61713 1.05438H2.61786C2.60765 0.401222 1.53199 0.209969 1.42731 0.895607C0.436175 8.15753 0.7441 15.5353 2.337 22.6917C5.00351 35.4077 10.5321 47.3657 18.512 57.6773C22.5008 62.872 27.0779 67.5976 32.1538 71.7618C34.901 73.9724 37.7795 76.0138 40.7726 77.8755L40.8423 77.8892C42.5363 78.225 44.2281 78.5653 45.9179 78.9148C46.092 79.9823 47.5285 80.1668 47.8977 79.3289C48.5438 79.4656 49.1897 79.6039 49.8353 79.744L48.7549 82.2809C46.016 80.9503 43.3517 79.4796 40.7726 77.8755L36.5875 77.0512C36.8037 77.1773 36.9421 77.4091 36.9421 77.6655C36.9421 77.9791 36.7349 78.256 36.4317 78.3475C35.3749 78.6067 34.3255 78.7527 33.2638 78.9005C32.9061 78.9503 32.5471 79.0002 32.1859 79.0548L31.7961 76.2133C31.1698 76.236 30.6068 76.6557 30.4325 77.2812C30.2225 78.0347 30.6517 78.8178 31.4046 79.0548C32.8774 79.477 34.3807 79.787 35.9013 79.9822L40.2277 80.8086C43.1761 81.3751 46.1306 81.9128 49.0912 82.4216C49.7675 82.59 50.4677 82.2496 50.7461 81.6169C51.0231 80.9789 50.7771 80.2366 50.1719 79.8848C49.4363 79.5501 48.7068 79.2035 47.9835 78.8453C47.9502 76.8161 47.7029 74.7962 47.2457 72.8189C46.9961 71.7939 46.6766 70.7871 46.2896 69.8057C46.0689 68.9366 45.6011 68.1501 44.9428 67.5413C44.7037 67.4026 44.4139 67.3824 44.1579 67.4866C43.9019 67.5909 43.7087 67.8078 43.6346 68.0741C43.5995 68.9383 43.7667 69.7987 44.1227 70.5869C44.375 71.4112 44.5898 72.2477 44.8049 73.0852C44.8228 73.1548 44.8406 73.2245 44.8586 73.2941C45.2357 74.7437 45.5346 76.2122 45.7541 77.6933C40.8755 75.0662 36.3095 71.8968 32.1462 68.2434C22.5255 59.8844 14.901 49.5163 9.82321 37.8876C7.30075 32.1029 5.44107 26.0568 4.27895 19.8625ZM34.7663 76.6417C35.2922 76.7476 35.8153 76.8675 36.335 77.0015L36.5875 77.0512C36.5392 77.0231 36.487 77.0002 36.4317 76.9834C35.8756 76.8442 35.3214 76.7357 34.7663 76.6417ZM34.7663 76.6417C33.784 76.444 32.7919 76.2955 31.7938 76.1968L31.7961 76.2133C31.9243 76.2086 32.0552 76.2206 32.1859 76.2509C32.5366 76.3056 32.8852 76.3563 33.2326 76.4067C33.746 76.4812 34.2565 76.5554 34.7663 76.6417Z" fill="#8082A5"/>
</svg>
