<svg width="25" height="24" viewBox="0 0 25 24" fill="none" xmlns="http://www.w3.org/2000/svg">
<g id="Icon">
<g id="Union">
<path d="M12.1992 15C13.8561 15 15.1992 13.6569 15.1992 12C15.1992 10.3431 13.8561 9 12.1992 9C10.5424 9 9.19922 10.3431 9.19922 12C9.19922 13.6569 10.5424 15 12.1992 15Z" fill="#999999"/>
<path fill-rule="evenodd" clip-rule="evenodd" d="M1.52263 11.4467C3.00988 6.97571 7.22713 3.75 12.1997 3.75C17.17 3.75 21.3857 6.97271 22.8748 11.4405C22.9951 11.8015 22.9952 12.1922 22.8751 12.5533C21.3878 17.0243 17.1706 20.25 12.198 20.25C7.22769 20.25 3.01206 17.0273 1.52296 12.5595C1.40262 12.1985 1.4025 11.8078 1.52263 11.4467ZM17.4492 12C17.4492 14.8995 15.0987 17.25 12.1992 17.25C9.29972 17.25 6.94922 14.8995 6.94922 12C6.94922 9.1005 9.29972 6.75 12.1992 6.75C15.0987 6.75 17.4492 9.1005 17.4492 12Z" fill="#999999"/>
</g>
</g>
</svg>
